<svg width="1440" height="1440" xmlns="http://www.w3.org/2000/svg">
  <defs>
    <pattern id="grid" width="80" height="80" patternUnits="userSpaceOnUse">
      <path d="M 80 0 L 0 0 0 80" fill="none" stroke="#f0f0f0" stroke-width="1"/>
    </pattern>
  </defs>
  <rect width="100%" height="100%" fill="white"/>
  <rect width="100%" height="100%" fill="url(#grid)"/>
  <circle cx="40" cy="40" r="3" fill="#e0e0e0" opacity="0.5"/>
  <circle cx="120" cy="40" r="3" fill="#e0e0e0" opacity="0.5"/>
  <circle cx="200" cy="40" r="3" fill="#e0e0e0" opacity="0.5"/>
  <circle cx="280" cy="40" r="3" fill="#e0e0e0" opacity="0.5"/>
  <circle cx="360" cy="40" r="3" fill="#e0e0e0" opacity="0.5"/>
  <circle cx="440" cy="40" r="3" fill="#e0e0e0" opacity="0.5"/>
  <circle cx="520" cy="40" r="3" fill="#e0e0e0" opacity="0.5"/>
  <circle cx="600" cy="40" r="3" fill="#e0e0e0" opacity="0.5"/>
  <circle cx="40" cy="120" r="3" fill="#e0e0e0" opacity="0.5"/>
  <circle cx="120" cy="120" r="3" fill="#e0e0e0" opacity="0.5"/>
  <circle cx="200" cy="120" r="3" fill="#e0e0e0" opacity="0.5"/>
  <circle cx="280" cy="120" r="3" fill="#e0e0e0" opacity="0.5"/>
  <circle cx="360" cy="120" r="3" fill="#e0e0e0" opacity="0.5"/>
  <circle cx="440" cy="120" r="3" fill="#e0e0e0" opacity="0.5"/>
  <circle cx="520" cy="120" r="3" fill="#e0e0e0" opacity="0.5"/>
  <circle cx="600" cy="120" r="3" fill="#e0e0e0" opacity="0.5"/>
</svg>